<?xml version="1.0" encoding="UTF-8" standalone="no"?>
<!-- Created with Inkscape (http://www.inkscape.org/) -->

<svg
   width="200mm"
   height="200mm"
   viewBox="0 0 200 200"
   version="1.1"
   id="svg5"
   xml:space="preserve"
   inkscape:version="1.2.1 (9c6d41e410, 2022-07-14)"
   sodipodi:docname="logo.svg"
   xmlns:inkscape="http://www.inkscape.org/namespaces/inkscape"
   xmlns:sodipodi="http://sodipodi.sourceforge.net/DTD/sodipodi-0.dtd"
   xmlns="http://www.w3.org/2000/svg"
   xmlns:svg="http://www.w3.org/2000/svg"><sodipodi:namedview
     id="namedview7"
     pagecolor="#ffffff"
     bordercolor="#000000"
     borderopacity="0.25"
     inkscape:showpageshadow="2"
     inkscape:pageopacity="0.0"
     inkscape:pagecheckerboard="0"
     inkscape:deskcolor="#d1d1d1"
     inkscape:document-units="mm"
     showgrid="false"
     inkscape:zoom="0.73851712"
     inkscape:cx="285.70766"
     inkscape:cy="281.64547"
     inkscape:window-width="1920"
     inkscape:window-height="1009"
     inkscape:window-x="1912"
     inkscape:window-y="-8"
     inkscape:window-maximized="1"
     inkscape:current-layer="layer1" /><defs
     id="defs2" /><g
     inkscape:label="Warstwa 1"
     inkscape:groupmode="layer"
     id="layer1"><path
       style="fill:#ffffff;stroke-width:0.053685;fill-opacity:1"
       d="m 107.19143,199.98205 c -0.017,-0.017 -0.65674,-0.0573 -1.42169,-0.0895 -1.47617,-0.0623 -2.45226,-0.12142 -3.45771,-0.20953 -0.33956,-0.0298 -0.88312,-0.0764 -1.20791,-0.10375 -0.8286,-0.0697 -2.233112,-0.21051 -2.711102,-0.27188 -1.85463,-0.23812 -2.4476,-0.32078 -3.0869,-0.43029 -0.17715,-0.0303 -0.51537,-0.0777 -0.75159,-0.10512 -0.2362,-0.0275 -0.56235,-0.0743 -0.72476,-0.10404 -0.44547,-0.0816 -0.64946,-0.11489 -0.8858,-0.14443 -0.1181,-0.0148 -0.26304,-0.0483 -0.32211,-0.0744 -0.059,-0.0262 -0.20399,-0.0601 -0.32211,-0.0754 -0.27327,-0.0354 -0.72922,-0.11704 -1.07368,-0.19234 -0.14766,-0.0323 -0.41338,-0.0823 -0.59056,-0.11109 -0.17715,-0.0288 -0.36689,-0.0665 -0.42164,-0.0838 -0.0548,-0.0173 -0.22384,-0.0516 -0.3758,-0.0764 -0.25628,-0.0418 -0.48077,-0.09 -1.02784,-0.22082 -0.11812,-0.0282 -0.31139,-0.0729 -0.42949,-0.0992 -0.1181,-0.0263 -0.31136,-0.0709 -0.42947,-0.0991 -0.25667,-0.0614 -0.55811,-0.12934 -1.10055,-0.24814 -0.39782,-0.0871 -0.65383,-0.14818 -1.02003,-0.24324 -0.10334,-0.0268 -0.28453,-0.0724 -0.40262,-0.10135 -0.11811,-0.0289 -0.2993,-0.0773 -0.40265,-0.10757 -0.10333,-0.0302 -0.41741,-0.11468 -0.6979,-0.18762 -0.46319,-0.12045 -1.05482,-0.28427 -1.47633,-0.40879 -0.1655,-0.0489 -0.31946,-0.092 -0.83213,-0.23283 -0.16241,-0.0446 -0.40399,-0.1157 -0.53685,-0.15797 -0.13288,-0.0423 -0.35029,-0.10778 -0.48318,-0.14561 -0.13286,-0.0378 -0.48315,-0.15215 -0.77842,-0.25405 -0.29527,-0.10192 -0.73538,-0.23876 -0.97804,-0.3041 -0.24265,-0.0653 -0.45807,-0.1357 -0.47869,-0.15633 -0.0206,-0.0206 -0.0925,-0.0375 -0.15961,-0.0375 -0.0672,0 -0.13702,-0.0242 -0.15528,-0.0537 -0.0183,-0.0296 -0.0804,-0.0537 -0.1381,-0.0537 -0.0577,0 -0.14688,-0.0214 -0.19815,-0.0476 -0.21611,-0.11028 -0.66145,-0.27564 -1.11323,-0.41337 -0.26575,-0.081 -0.50614,-0.16748 -0.53417,-0.19214 -0.0281,-0.0247 -0.10174,-0.0448 -0.16375,-0.0448 -0.062,0 -0.13568,-0.0225 -0.16374,-0.05 -0.028,-0.0275 -0.29259,-0.13388 -0.58786,-0.23643 -0.29526,-0.10255 -0.66972,-0.2394 -0.83211,-0.30412 -0.1624,-0.0647 -0.42814,-0.16578 -0.59053,-0.22459 -0.1624,-0.0588 -0.36774,-0.13743 -0.45633,-0.1747 -0.0886,-0.0373 -0.24562,-0.0994 -0.34895,-0.13813 -0.10334,-0.0387 -0.21085,-0.0906 -0.23891,-0.11542 -0.028,-0.0248 -0.0922,-0.0451 -0.14256,-0.0451 -0.0503,0 -0.18444,-0.0461 -0.29794,-0.10247 -0.3468,-0.17217 -0.71218,-0.32702 -0.77165,-0.32702 -0.031,0 -0.14982,-0.0477 -0.26402,-0.10592 -0.11417,-0.0582 -0.30043,-0.14048 -0.41392,-0.18274 -0.32978,-0.12282 -1.56263,-0.66378 -2.03978,-0.89503 -0.2407,-0.11667 -0.45256,-0.21212 -0.47075,-0.21212 -0.0183,0 -0.28028,-0.11794 -0.58236,-0.2621 -0.30211,-0.14415 -0.71836,-0.33958 -0.92507,-0.43427 -0.57637,-0.26406 -2.63087,-1.28799 -3.11342,-1.55167 -0.23639,-0.12916 -0.70623,-0.37725 -1.04408,-0.55131 -0.33787,-0.17406 -0.65192,-0.34745 -0.69791,-0.38533 -0.046,-0.0379 -0.20441,-0.128 -0.35205,-0.20029 -0.14763,-0.0723 -0.49792,-0.26192 -0.77842,-0.42144 -0.28052,-0.15951 -0.61872,-0.35004 -0.7516,-0.4234 -0.13286,-0.0734 -0.32612,-0.18694 -0.42949,-0.25238 -0.10333,-0.0654 -0.42947,-0.26124 -0.72473,-0.43506 -0.29526,-0.17383 -0.59869,-0.35251 -0.67425,-0.39708 -0.83385,-0.49171 -2.45227,-1.51097 -2.90707,-1.83085 -0.08,-0.0563 -0.16685,-0.10231 -0.19299,-0.10231 -0.0262,0 -0.0913,-0.0483 -0.14471,-0.10738 -0.0535,-0.059 -0.11665,-0.10736 -0.14046,-0.10736 -0.0238,0 -0.24353,-0.13771 -0.48828,-0.30603 -0.24472,-0.16832 -0.602,-0.41211 -0.79392,-0.54176 -0.19193,-0.12965 -0.39883,-0.28184 -0.45979,-0.33819 -0.0609,-0.0564 -0.12615,-0.10246 -0.14493,-0.10246 -0.0309,0 -0.2792,-0.16593 -0.68298,-0.45633 -0.0821,-0.059 -0.27893,-0.19955 -0.4374,-0.3122 -0.15844,-0.11267 -0.38472,-0.27657 -0.50283,-0.36422 -0.11811,-0.0876 -0.29929,-0.21954 -0.40264,-0.29307 -0.10334,-0.0735 -0.28452,-0.20638 -0.40263,-0.29526 -0.11811,-0.0889 -0.29965,-0.21787 -0.40343,-0.28665 -0.10379,-0.0688 -0.2215,-0.1646 -0.26157,-0.21291 -0.0401,-0.0483 -0.096,-0.0878 -0.12432,-0.0878 -0.0283,0 -0.15215,-0.0848 -0.27527,-0.18846 -0.12313,-0.10365 -0.39297,-0.32 -0.59965,-0.48076 -0.61338,-0.4771 -0.87623,-0.68823 -1.12182,-0.90106 -0.12779,-0.11073 -0.25113,-0.20133 -0.27414,-0.20133 -0.023,0 -0.14108,-0.0857 -0.26242,-0.19042 -0.12134,-0.10474 -0.35348,-0.29722 -0.51586,-0.42773 -0.68383,-0.54959 -0.89359,-0.72574 -1.51765,-1.27442 -0.36113,-0.31751 -0.83276,-0.7282 -1.04804,-0.91264 -0.70219,-0.60159 -1.3454,-1.18322 -1.9887,-1.79829 -0.34741,-0.33217 -0.65553,-0.60395 -0.68467,-0.60395 -0.0291,0 -0.17285,-0.12249 -0.31939,-0.27218 -0.14652,-0.14971 -0.37316,-0.32129 -0.50367,-0.38129 -0.22595,-0.1039 -1.10525,-0.94618 -1.73462,-1.66158 -0.13968,-0.15877 -0.40396,-0.45252 -0.58727,-0.65277 -0.29744,-0.32492 -0.33366,-0.38886 -0.33656,-0.59438 -0.004,-0.22757 0.009,-0.24352 1.07042,-1.3494 0.59056,-0.61552 1.23074,-1.2787 1.42266,-1.47376 0.19194,-0.19505 1.83266,-1.88813 3.6461,-3.76239 1.81341,-1.87426 3.79439,-3.91538 4.40217,-4.53581 0.60778,-0.62044 1.45535,-1.49099 1.88348,-1.93457 1.98238,-2.05385 5.76451,-5.95868 6.76126,-6.98057 0.60699,-0.62231 1.33217,-1.37122 1.61151,-1.66424 0.27933,-0.29302 1.02823,-1.06548 1.66422,-1.71658 1.38777,-1.42072 3.30434,-3.39804 6.684,-6.8958 1.38371,-1.43205 3.01317,-3.11132 3.62103,-3.73173 0.60786,-0.62039 1.67067,-1.71356 2.36183,-2.42924 0.9001,-0.93208 1.29047,-1.30126 1.37595,-1.30126 0.0801,0 0.23182,-0.12559 0.46129,-0.38178 0.33274,-0.37147 1.87796,-1.96752 5.0358,-5.20147 2.03659,-2.08569 4.37864,-4.49537 6.36531,-6.54917 0.8858,-0.91573 2.34121,-2.41984 3.23426,-3.34247 0.89305,-0.92263 2.31246,-2.39017 3.15427,-3.26122 3.85188,-3.98566 7.552092,-7.8023 9.507572,-9.80677 0.8592,-0.88073 1.84388,-1.89269 2.18821,-2.2488 l 0.62602,-0.64749 -0.12631,-0.249474 c -0.0695,-0.13723 -0.15165,-0.28071 -0.18264,-0.31885 -0.0834,-0.10275 -0.56357,-1.0445 -0.70593,-1.38464 -0.068,-0.16241 -0.18027,-0.41607 -0.24958,-0.5637 -0.0694,-0.14763 -0.18635,-0.45168 -0.26009,-0.67564 -0.0737,-0.22398 -0.16901,-0.48972 -0.21177,-0.59054 -0.0713,-0.16826 -0.12128,-0.33869 -0.25055,-0.85438 -0.0259,-0.10335 -0.0747,-0.28453 -0.1084,-0.40264 -0.063,-0.22068 -0.11893,-0.47739 -0.21637,-0.99318 -0.0306,-0.16239 -0.0794,-0.41606 -0.10824,-0.56369 -0.18883,-0.96613 -0.25868,-3.96272 -0.11639,-4.99271 0.12457,-0.90164 0.16922,-1.18061 0.22782,-1.42266 0.0583,-0.24122 0.1159,-0.49535 0.2096,-0.92607 0.0273,-0.12549 0.0738,-0.31271 0.1033,-0.41606 0.0295,-0.10335 0.0814,-0.28453 0.11521,-0.40263 0.10605,-0.36983 0.27163,-0.85503 0.32493,-0.95219 0.0281,-0.0512 0.0512,-0.1171 0.0512,-0.14629 0,-0.0292 0.0725,-0.21131 0.16105,-0.40471 0.0885,-0.1934 0.16105,-0.36562 0.16105,-0.38269 0,-0.0612 0.92498,-1.87389 0.99855,-1.95683 0.0413,-0.0466 0.0752,-0.10031 0.0752,-0.11932 0,-0.0508 0.71032,-1.12746 0.89146,-1.35116 0.0855,-0.10556 0.23391,-0.28491 0.32986,-0.39856 0.096,-0.11365 0.17448,-0.22547 0.17448,-0.24848 0,-0.12566 1.46945,-1.62695 2.49481,-2.54887 0.34481,-0.31003 0.89819,-0.82339 1.22972,-1.14081 0.33153,-0.31741 0.62434,-0.57711 0.6507,-0.57711 0.0263,0 0.30872,-0.24762 0.6275,-0.55028 0.31874,-0.30265 0.85155,-0.79828 1.18401,-1.1014 1.01642,-0.92678 1.95762,-1.79481 3.5644,-3.28735 0.60585,-0.56279 1.36261,-1.25647 2.50278,-2.29418 0.93609,-0.85196 1.72907,-1.57556 2.38461,-2.17597 0.32993,-0.30218 0.9442,-0.86347 1.36505,-1.24732 0.42082,-0.38385 0.96018,-0.88257 1.19857,-1.10825 0.57994,-0.54908 2.05216,-1.90422 3.52031,-3.24036 1.38661,-1.26192 1.85183,-1.68819 2.37593,-2.17701 0.30245,-0.28208 0.64051,-0.57924 0.75124,-0.66037 0.13769,-0.10087 0.20132,-0.18905 0.20132,-0.27897 0,-0.29625 0.60735,-0.10162 1.87897,0.6021 0.1624,0.0899 0.48854,0.26694 0.72476,0.39349 0.2362,0.12655 0.45448,0.24952 0.48506,0.27328 0.0306,0.0238 0.23594,0.13955 0.45633,0.25731 0.34355,0.18356 0.40305,0.23643 0.41693,0.37052 0.0138,0.13324 -0.0438,0.21464 -0.38921,0.54952 -0.22299,0.21622 -0.40542,0.41718 -0.40542,0.4466 0,0.0294 -0.13891,0.2017 -0.3087,0.38288 -0.16978,0.18117 -0.42947,0.46939 -0.57711,0.6405 -0.14762,0.1711 -0.40129,0.46439 -0.5637,0.65176 -0.16238,0.18737 -0.4402,0.51181 -0.61738,0.72101 -0.17715,0.20919 -0.46704,0.54873 -0.64422,0.75452 -0.17716,0.2058 -0.45497,0.53183 -0.61738,0.72452 -0.16239,0.19269 -0.4176,0.48873 -0.56713,0.65786 -0.14955,0.16914 -0.31865,0.37127 -0.3758,0.44921 -0.0572,0.078 -0.2972,0.35789 -0.5334,0.62215 -0.23622,0.26424 -0.59859,0.67997 -0.80529,0.92385 -0.20667,0.24387 -0.51408,0.6041 -0.68309,0.80051 -0.49337,0.57334 -1.09366,1.27723 -1.84011,2.1577 -0.47414,0.55927 -0.92313,1.07309 -1.12401,1.2863 -0.0973,0.10334 -0.23968,0.27349 -0.31626,0.3781 l -0.13922,0.1902 2.73161,2.7312 2.73159,2.73121 0.19697,-0.15662 c 0.10833,-0.0861 0.50281,-0.44023 0.87662,-0.78686 0.37381,-0.34663 0.95747,-0.88441 1.29703,-1.19505 0.33956,-0.31065 0.92506,-0.84843 1.30113,-1.19507 0.37605,-0.34662 0.97471,-0.89597 1.33034,-1.22077 0.64948,-0.59317 1.41028,-1.29964 2.48166,-2.30442 0.31722,-0.29748 0.87955,-0.81871 1.24963,-1.15827 0.37007,-0.33956 0.95731,-0.88916 1.30496,-1.22133 0.34764,-0.33218 0.65378,-0.60396 0.68032,-0.60396 0.0265,0 0.33274,-0.27178 0.68048,-0.60396 0.34772,-0.33217 0.8006,-0.7578 1.00636,-0.94583 0.20577,-0.18803 0.38148,-0.39457 0.39049,-0.45898 0.0143,-0.10155 0.71246,-0.78617 1.8388,-1.80288 0.14719,-0.13287 0.48696,-0.44692 0.75499,-0.69791 0.26805,-0.25097 0.73961,-0.68582 1.04788,-0.96632 0.44868,-0.40825 8.09221,-7.92095 12.69916,-12.48179 0.50704,-0.50196 1.38995,-1.37117 1.96204,-1.93158 0.57209,-0.56041 2.27223,-2.24046 3.7781,-3.73343 2.55039,-2.52856 6.46499,-6.39063 12.66652,-12.49657 2.28747,-2.25222 2.59236,-2.53404 2.74131,-2.53404 0.25738,0 0.62612,0.45851 0.84128,1.0461 0.12922,0.35292 0.13893,1.59668 0.0152,1.95183 -0.20597,0.5914 -0.24261,0.63824 -1.78232,2.27775 -0.45001,0.4792 -1.15689,1.23364 -1.57084,1.67655 -2.74244,2.93427 -3.86845,4.13173 -4.50436,4.79015 -0.30721,0.3181 -0.67857,0.71123 -0.82521,0.87362 -0.14661,0.1624 -0.59584,0.63917 -0.99827,1.05948 -0.40242,0.42032 -1.08197,1.13957 -1.51011,1.59835 -0.42813,0.45877 -1.13476,1.20297 -1.5703,1.65378 -0.43551,0.45081 -0.79185,0.84314 -0.79185,0.87185 0,0.0287 -0.36237,0.41396 -0.80527,0.85611 -0.4429,0.44217 -0.80529,0.82743 -0.80529,0.85613 0,0.0287 -0.35631,0.42144 -0.79185,0.87275 -0.43552,0.4513 -1.14894,1.20119 -1.58539,1.6664 -0.88385,0.94212 -2.05624,2.17892 -2.68468,2.8322 -0.22723,0.23622 -0.58848,0.61905 -0.80276,0.85074 -0.2143,0.2317 -0.75779,0.81149 -1.20777,1.28844 -0.45001,0.47696 -1.16895,1.24165 -1.59769,1.69931 -0.42874,0.45766 -1.14769,1.22447 -1.59767,1.70401 -0.44999,0.47954 -1.16845,1.24716 -1.59659,1.70581 -0.42814,0.45865 -1.12872,1.20568 -1.55687,1.66006 -0.42813,0.45437 -0.95582,1.01547 -1.17265,1.24686 -0.21682,0.23141 -0.56462,0.60193 -0.7729,0.82338 -1.04845,1.1148 -1.34916,1.4384 -1.89294,2.03707 -0.32479,0.35759 -0.86206,0.94543 -1.19392,1.30631 -0.33185,0.36089 -0.85126,0.92816 -1.15423,1.26061 -0.30296,0.33244 -0.79847,0.86525 -1.10112,1.18401 -0.30266,0.31876 -0.55028,0.60108 -0.55028,0.62737 0,0.0263 -0.25372,0.31487 -0.56384,0.64128 -0.31011,0.32642 -0.65243,0.69011 -0.76068,0.80822 -0.51349,0.56023 -0.97763,1.05999 -1.37796,1.48368 -0.24095,0.25501 -0.7159,0.76928 -1.05547,1.14281 -0.33956,0.37353 -0.8889,0.97419 -1.22075,1.33479 -0.58333,0.63385 -1.05634,1.15161 -2.24193,2.4541 -1.40459,1.54304 -1.69836,1.86218 -2.21452,2.40583 -0.30265,0.31877 -0.55028,0.60249 -0.55028,0.63051 0,0.028 1.22832,1.27909 2.7296,2.78014 l 2.7296,2.7292 0.53612,-0.58391 c 0.29486,-0.32115 0.69119,-0.74228 0.88073,-0.93582 0.18953,-0.19356 0.76738,-0.8038 1.2841,-1.35612 0.51671,-0.55231 1.30771,-1.39566 1.75778,-1.8741 0.45006,-0.47845 1.15065,-1.22644 1.55686,-1.66222 0.40622,-0.43579 1.09491,-1.16151 1.53045,-1.61272 0.43551,-0.45122 0.79186,-0.84263 0.79186,-0.86981 0,-0.0272 0.36841,-0.43002 0.81869,-0.89517 0.45027,-0.46518 1.18107,-1.2318 1.62397,-1.70363 0.44289,-0.47182 1.10725,-1.1726 1.47633,-1.55728 0.65826,-0.68608 1.57813,-1.66328 3.09963,-3.29279 0.42036,-0.45022 1.11518,-1.19303 1.54406,-1.6507 1.12078,-1.19605 2.27489,-2.42906 3.14057,-3.35532 0.67408,-0.72121 1.10145,-1.17387 2.94693,-3.12122 0.28372,-0.29939 0.96278,-1.01997 1.50902,-1.60128 0.54626,-0.58133 1.34928,-1.43558 1.78448,-1.89835 0.43521,-0.46276 1.1358,-1.20997 1.55686,-1.66047 0.42108,-0.45049 1.12191,-1.1883 1.55744,-1.63956 0.43551,-0.45126 0.79186,-0.84268 0.79186,-0.86982 0,-0.0271 0.35632,-0.41858 0.79185,-0.86984 0.43551,-0.45126 1.14215,-1.1942 1.57028,-1.65097 0.42814,-0.45678 1.10457,-1.16904 1.50319,-1.58281 0.39861,-0.41377 1.08712,-1.1403 1.53002,-1.61454 0.44291,-0.47422 1.16133,-1.24183 1.59652,-1.70579 1.59497,-1.70047 3.43584,-3.66619 4.7114,-5.03101 0.41395,-0.4429 1.12084,-1.19349 1.57087,-1.66798 1.84851,-1.94901 2.2403,-2.36673 2.38036,-2.53787 0.17838,-0.21796 0.49402,-0.42323 0.85291,-0.55464 0.3201,-0.11721 1.3371,-0.13586 1.6403,-0.0301 0.37373,0.13037 0.79419,0.42936 0.95619,0.67992 0.70331,1.08786 0.55028,2.24496 -0.43052,3.25538 -0.23123,0.23822 -0.42044,0.45382 -0.42044,0.4791 0,0.0253 -0.16307,0.22129 -0.36236,0.43558 -0.19932,0.21429 -0.54356,0.5976 -0.76501,0.85179 -0.22147,0.25419 -0.57264,0.64841 -0.78042,0.87604 -0.20775,0.22763 -0.54468,0.60714 -0.74872,0.84335 -0.20401,0.23622 -0.54136,0.61623 -0.74962,0.84447 -0.20826,0.22824 -0.54216,0.6027 -0.74199,0.83212 -0.55934,0.64221 -1.50571,1.71938 -2.30866,2.62776 -0.21343,0.24146 -0.56925,0.64795 -0.7907,0.90331 -0.22147,0.25537 -0.5476,0.61666 -0.72475,0.80289 -0.17716,0.18621 -0.49124,0.5353 -0.69791,0.77574 -0.2067,0.24045 -0.557,0.64192 -0.77845,0.89218 -0.22144,0.25026 -0.57174,0.64872 -0.77842,0.88548 -0.2067,0.23676 -0.55095,0.61894 -0.76501,0.8493 -0.21408,0.23037 -0.38923,0.44187 -0.38923,0.47001 0,0.0281 -0.18118,0.23116 -0.40262,0.45113 -0.22145,0.21997 -0.40264,0.42288 -0.40264,0.45092 0,0.0281 -0.16308,0.22287 -0.3624,0.43297 -0.52385,0.55225 -1.6868,1.84422 -1.80814,2.00877 -0.057,0.0773 -0.26236,0.31546 -0.45633,0.52924 -0.39041,0.43028 -0.9389,1.05089 -1.50689,1.70503 -0.64122,0.73846 -1.51283,1.72348 -2.25646,2.55004 -0.58704,0.65251 -1.15162,1.28758 -1.52836,1.71909 -0.20667,0.23676 -0.55092,0.61894 -0.76501,0.84931 -0.21406,0.23037 -0.38921,0.44187 -0.38921,0.47001 0,0.0281 -0.18119,0.23115 -0.40264,0.45113 -0.22145,0.21997 -0.40263,0.42541 -0.40263,0.45653 0,0.0311 -0.15704,0.21221 -0.34895,0.40243 -0.19193,0.19021 -0.34896,0.37153 -0.34896,0.40292 0,0.0314 -0.13557,0.18911 -0.30129,0.3505 -0.16571,0.16139 -0.39787,0.41423 -0.5159,0.56187 -0.11805,0.14763 -0.48377,0.56356 -0.8127,0.92427 -0.56655,0.62131 -0.99336,1.10142 -1.81793,2.0449 -0.19852,0.22714 -0.53123,0.60626 -0.73933,0.84246 -0.41435,0.4703 -0.97905,1.11336 -1.5428,1.75683 -0.19982,0.22809 -0.48411,0.54277 -0.63175,0.6993 -0.14763,0.15653 -0.47376,0.52198 -0.72473,0.81212 -0.25099,0.29014 -0.63753,0.73045 -0.85898,0.97846 -0.22145,0.24801 -0.56612,0.63812 -0.76594,0.8669 -0.57077,0.6535 -1.13081,1.29101 -2.32259,2.6439 -0.2211,0.25098 -0.55571,0.62543 -0.74362,0.83212 -0.80864,0.8895 -1.15615,1.27889 -1.5095,1.69135 -0.20669,0.24127 -0.557,0.64125 -0.77845,0.88886 -0.22145,0.2476 -0.57174,0.64547 -0.77842,0.88414 -0.51512,0.59483 -1.04751,1.19814 -1.55017,1.75657 -0.23251,0.25834 -0.49826,0.55603 -0.59054,0.66153 -0.0923,0.10551 -0.40933,0.46383 -0.7046,0.79628 -0.8943,1.00691 -1.29607,1.46155 -1.67672,1.89738 -0.19982,0.22878 -0.54451,0.62124 -0.76596,0.87212 -0.22145,0.25088 -0.55967,0.63757 -0.75158,0.85932 -0.39088,0.45159 -1.04107,1.19146 -1.43892,1.63739 -0.14489,0.1624 -2.32082,2.37288 -4.83539,4.91218 -2.5146,2.539314 -4.70176,4.749794 -4.86039,4.912184 -0.3641,0.37272 -1.59117,1.48872 -1.91079,1.73783 -0.31023,0.24177 -2.07246,1.4296 -2.12093,1.4296 -0.0203,0 -0.10088,0.0456 -0.17924,0.10133 -0.21922,0.15587 -1.73575,0.91846 -1.83036,0.9204 -0.0461,8e-4 -0.13065,0.0372 -0.18797,0.0806 -0.0573,0.0434 -0.1361,0.0788 -0.17505,0.0788 -0.039,0 -0.17328,0.0467 -0.29843,0.10383 -0.34064,0.15541 -1.46091,0.51621 -1.91867,0.61793 -0.22144,0.0492 -0.49926,0.11097 -0.61737,0.13726 -0.54663,0.12163 -0.70226,0.14641 -1.74478,0.27776 -0.66139,0.0833 -3.47737,0.0844 -4.08006,0.002 -0.73195,-0.1006 -1.13557,-0.16286 -1.42267,-0.21946 -1.01775,-0.20062 -1.67917,-0.36705 -1.76891,-0.4451 -0.0281,-0.0244 -0.10513,-0.0443 -0.17132,-0.0443 -0.0661,0 -0.13524,-0.0242 -0.15347,-0.0537 -0.0183,-0.0296 -0.0804,-0.0537 -0.13812,-0.0537 -0.0577,0 -0.14689,-0.023 -0.19816,-0.0512 -0.0513,-0.0281 -0.25024,-0.10371 -0.44217,-0.16797 -0.93589,-0.31334 -1.92903,-0.79135 -2.86759,-1.38018 l -0.21018,-0.13187 -0.47342,0.50321 c -0.90176,0.95855 -2.1982,2.33297 -3.11961,3.30729 -0.50911,0.53832 -1.33633,1.41378 -1.83828,1.94545 -0.50196,0.53167 -1.23879,1.30365 -1.6374,1.71551 -0.39863,0.41186 -1.14753,1.19792 -1.66424,1.74679 -0.51672,0.54888 -1.34389,1.42614 -1.83817,1.94948 -1.897652,2.00923 -2.702682,2.86242 -3.557242,3.76999 -2.0971,2.22717 -2.65429,2.81681 -3.50341,3.70745 -1.77634,1.86317 -3.97076,4.1756 -5.19352,5.47279 -0.50196,0.53252 -1.31729,1.38536 -1.81188,1.89523 -0.49457,0.50986 -0.89922,0.94942 -0.89922,0.97679 0,0.0273 -0.39258,0.45448 -0.87239,0.94916 -0.80217,0.82703 -1.95738,2.04577 -3.06089,3.22925 l -0.44205,0.4741 0.16104,0.12797 c 0.0886,0.0704 0.23685,0.18922 0.32947,0.26407 0.0927,0.0749 0.19236,0.13611 0.2216,0.13611 0.0292,0 0.086,0.0395 0.12607,0.0878 0.0401,0.0483 0.1578,0.14507 0.26156,0.21505 0.10379,0.07 0.33364,0.23595 0.51081,0.36884 0.4722,0.3542 2.36992,1.61455 2.99782,1.99095 0.14292,0.0857 0.32411,0.19508 0.40264,0.2431 1.09736,0.67114 3.57345,1.96514 4.6002,2.40408 0.23535,0.1006 0.63324,0.274 0.88422,0.38534 0.25097,0.11133 0.62544,0.26701 0.83213,0.34597 0.20668,0.0789 0.39873,0.16525 0.42679,0.19177 0.028,0.0265 0.0908,0.0482 0.13939,0.0482 0.0486,0 0.1706,0.0419 0.27111,0.0932 0.1005,0.0513 0.31951,0.14186 0.4867,0.20132 0.45928,0.16332 2.93672,0.97475 3.21239,1.05213 0.13288,0.0373 0.26454,0.0878 0.29258,0.11217 0.0281,0.0244 0.12929,0.0443 0.225,0.0443 0.0957,0 0.18893,0.0242 0.20717,0.0537 0.0183,0.0295 0.0861,0.054 0.1508,0.0545 0.0647,6.1e-4 0.22633,0.0397 0.35922,0.0874 0.13286,0.0476 0.3986,0.1208 0.59053,0.16266 0.19193,0.0418 0.45765,0.10075 0.59054,0.13088 0.13286,0.0301 0.33231,0.0678 0.44324,0.0839 0.110912,0.016 0.215002,0.0506 0.231332,0.0771 0.0162,0.0264 0.10797,0.048 0.20366,0.048 0.0957,0 0.19694,0.0218 0.225,0.0485 0.028,0.0267 0.15971,0.0615 0.29258,0.0774 0.13287,0.0159 0.36237,0.0534 0.51001,0.0833 0.29701,0.0602 1.09809,0.19559 1.6374,0.27664 0.19192,0.0289 0.4939,0.0777 0.67106,0.10855 0.17715,0.0308 0.51538,0.0784 0.75158,0.10564 0.23622,0.0272 0.63483,0.0752 0.88582,0.10643 2.61393,0.32599 6.91356,0.32669 10.03912,0.002 0.65345,-0.0679 1.23047,-0.14369 1.63737,-0.21493 0.17718,-0.031 0.47917,-0.0781 0.67108,-0.10477 0.4085,-0.0566 1.3181,-0.20728 1.66423,-0.27561 0.13289,-0.0263 0.32615,-0.0617 0.42949,-0.0788 0.10334,-0.0171 0.27849,-0.0542 0.38921,-0.0825 0.53749,-0.13745 0.64822,-0.16359 1.46293,-0.34536 0.36776,-0.0821 0.67066,-0.16038 0.93948,-0.24298 0.0738,-0.0227 0.2369,-0.0682 0.36239,-0.10113 0.53053,-0.13932 0.68727,-0.1884 0.73549,-0.23031 0.028,-0.0244 0.10247,-0.0444 0.16537,-0.0444 0.12389,0 1.54943,-0.44994 1.70214,-0.53724 0.0513,-0.0293 0.1301,-0.0533 0.17518,-0.0533 0.0451,0 0.12394,-0.0229 0.17521,-0.0508 0.0513,-0.0279 0.2261,-0.0898 0.3885,-0.13742 0.16239,-0.0477 0.41001,-0.13348 0.55028,-0.19077 0.59547,-0.24322 0.79157,-0.3212 1.27501,-0.50701 0.28051,-0.10781 0.60289,-0.24246 0.7164,-0.29922 0.11353,-0.0568 0.23392,-0.1032 0.26755,-0.1032 0.0336,0 0.2065,-0.0702 0.38413,-0.15591 0.59336,-0.28641 1.39256,-0.63271 1.79934,-0.77967 0.43337,-0.15655 0.88251,-0.33602 1.03273,-0.41267 0.0513,-0.0262 0.14042,-0.0476 0.19813,-0.0476 0.0577,0 0.11987,-0.0242 0.13812,-0.0537 0.0183,-0.0295 0.0873,-0.0537 0.15348,-0.0537 0.0662,0 0.14327,-0.0216 0.17131,-0.0479 0.028,-0.0264 0.25635,-0.10031 0.50732,-0.16435 0.25099,-0.0641 0.54088,-0.14071 0.64422,-0.1704 0.10336,-0.0297 0.28454,-0.0776 0.40264,-0.10653 0.11811,-0.0289 0.30534,-0.0756 0.41606,-0.1038 0.78323,-0.19932 1.55372,-0.33769 2.69767,-0.48449 1.8549,-0.23804 5.11066,-0.23766 6.68382,8.1e-4 0.19193,0.0291 0.56636,0.0775 0.83211,0.10767 0.26574,0.0301 0.56773,0.0783 0.67106,0.10707 0.10334,0.0288 0.26037,0.0643 0.34896,0.0789 0.30044,0.0497 0.88807,0.18626 1.27503,0.29631 0.4705,0.1338 0.61529,0.17357 0.81468,0.22374 0.5478,0.13783 1.82829,0.59451 2.18654,0.77981 0.0784,0.0405 0.17764,0.0737 0.22061,0.0737 0.086,0 0.27997,0.0911 1.61261,0.75711 1.05448,0.52699 1.30748,0.6617 1.42646,0.75946 0.048,0.0395 0.15983,0.10592 0.24841,0.14767 0.0885,0.0417 0.20131,0.10905 0.25053,0.14958 0.0492,0.0405 0.24673,0.17445 0.43895,0.29759 0.63257,0.40526 1.0859,0.72194 1.15828,0.80913 0.0392,0.0472 0.0951,0.0858 0.12437,0.0858 0.0292,0 0.13482,0.0664 0.23458,0.14763 1.59863,1.30092 4.25815,3.9528 5.14809,5.13326 0.0886,0.11754 0.22697,0.3001 0.30744,0.40567 0.0805,0.10558 0.20648,0.27651 0.28001,0.37985 0.0736,0.10335 0.20415,0.28454 0.29024,0.40265 0.23948,0.32847 0.92867,1.40379 1.30749,2.04003 0.23271,0.39085 1.19499,2.30959 1.29905,2.59028 0.041,0.11074 0.12548,0.32818 0.18763,0.48319 0.0622,0.15502 0.16368,0.40868 0.22561,0.5637 0.3278,0.82034 0.68275,1.92887 0.82945,2.59031 0.0392,0.17716 0.0989,0.41874 0.13244,0.53684 0.0606,0.21326 0.12044,0.47616 0.21394,0.9395 0.0268,0.13287 0.0744,0.36237 0.10555,0.51001 0.0313,0.14763 0.0786,0.42544 0.10529,0.61737 0.0267,0.19193 0.0635,0.42143 0.0818,0.51001 0.0757,0.36536 0.24564,3.04824 0.24144,3.81164 -0.004,0.88454 -0.17567,3.43332 -0.26086,3.89217 -0.0301,0.16241 -0.0686,0.37983 -0.0855,0.48317 -0.0288,0.17575 -0.054,0.30515 -0.18599,0.95291 -0.0286,0.14026 -0.0749,0.3758 -0.1029,0.52343 -0.028,0.14764 -0.0752,0.35299 -0.1048,0.45632 -0.0297,0.10335 -0.10669,0.40533 -0.17127,0.67108 -0.0646,0.26574 -0.13836,0.53148 -0.16396,0.59052 -0.0256,0.059 -0.18069,0.51748 -0.34462,1.01873 -0.16391,0.50124 -0.32156,0.93489 -0.35032,0.96365 -0.0288,0.0288 -0.0523,0.0961 -0.0523,0.14966 0,0.0536 -0.0226,0.1393 -0.0503,0.19058 -0.0276,0.0513 -0.1262,0.27441 -0.21905,0.49586 -0.40744,0.97184 -1.23321,2.57308 -1.79959,3.48953 -0.10035,0.1624 -0.1999,0.3315 -0.22118,0.3758 -0.0535,0.11119 -0.48232,0.73261 -0.68541,0.99317 -0.0921,0.11811 -0.23855,0.32345 -0.32556,0.45632 -0.087,0.13287 -0.24351,0.34247 -0.34782,0.46577 -0.10429,0.1233 -0.28626,0.35004 -0.40436,0.50388 -0.54608,0.71128 -2.03918,2.26407 -2.75855,2.86884 -0.21072,0.17716 -0.52605,0.4429 -0.70071,0.59054 -0.17466,0.14764 -0.41728,0.3409 -0.53914,0.42948 -0.12185,0.0886 -0.2988,0.22239 -0.39321,0.29737 -0.0944,0.075 -0.22273,0.17161 -0.28516,0.21474 -0.75442,0.52114 -1.09489,0.74949 -1.1175,0.74949 -0.015,0 -0.16687,0.0929 -0.33759,0.20649 -0.17071,0.11358 -0.4855,0.30685 -0.69957,0.42949 -0.21409,0.12264 -0.55231,0.31842 -0.7516,0.43507 -0.44014,0.2576 -1.83791,0.91723 -2.9661,1.39973 -0.22147,0.0947 -0.52215,0.2298 -0.66819,0.30021 -0.14605,0.0704 -0.29576,0.12801 -0.3327,0.12801 -0.0369,0 -0.18072,0.0604 -0.31955,0.13421 -0.13882,0.0738 -0.27325,0.13421 -0.2987,0.13421 -0.0255,0 -0.14868,0.0447 -0.27386,0.0994 -0.38967,0.17027 -0.74553,0.31488 -1.27444,0.51794 -0.611,0.23459 -1.01332,0.39778 -1.14008,0.46244 -0.0513,0.0262 -0.13702,0.0476 -0.19057,0.0476 -0.0536,0 -0.12032,0.0219 -0.14836,0.0486 -0.028,0.0267 -0.2322,0.11376 -0.45365,0.19348 -0.75487,0.27175 -1.90556,0.67654 -2.01318,0.70821 -0.0591,0.0174 -0.13154,0.0478 -0.16107,0.0677 -0.09,0.0606 -3.6306,1.19029 -4.29481,1.37035 -0.17715,0.048 -0.47023,0.13426 -0.65126,0.19163 -0.18103,0.0574 -0.37891,0.10431 -0.43974,0.10431 -0.0608,0 -0.1255,0.0242 -0.14376,0.0537 -0.0183,0.0295 -0.0907,0.0537 -0.16104,0.0537 -0.0703,0 -0.14116,0.0215 -0.15739,0.0478 -0.0162,0.0263 -0.10825,0.0608 -0.20449,0.0767 -0.23089,0.0381 -0.53206,0.11076 -0.92656,0.22344 -0.17716,0.0506 -0.41876,0.11494 -0.53687,0.14296 -0.11809,0.028 -0.29928,0.0729 -0.40263,0.0998 -0.10335,0.0268 -0.26038,0.0638 -0.34895,0.0821 -0.0886,0.0183 -0.20937,0.0538 -0.26842,0.0789 -0.0591,0.0251 -0.16778,0.0577 -0.2416,0.0724 -0.0738,0.0147 -0.30332,0.0661 -0.51,0.11412 -0.20668,0.048 -0.48452,0.10902 -0.61738,0.13557 -0.13288,0.0265 -0.34427,0.0736 -0.46974,0.10466 -0.47248,0.11681 -0.69005,0.16552 -0.87238,0.19532 -0.10334,0.0169 -0.23623,0.0514 -0.29527,0.0768 -0.0591,0.0254 -0.19193,0.0578 -0.29527,0.0722 -0.10334,0.0144 -0.3087,0.0538 -0.45633,0.0875 -0.25119,0.0575 -0.77181,0.15823 -1.3958,0.27012 -0.28612,0.0513 -0.69024,0.12918 -1.1274,0.21723 -0.3676,0.074 -0.74005,0.1389 -1.15422,0.20098 -0.19192,0.0288 -0.40936,0.0673 -0.48317,0.0857 -0.0738,0.0184 -0.33957,0.0574 -0.59054,0.0867 -0.25097,0.0293 -0.60127,0.0782 -0.77844,0.10862 -0.46248,0.0794 -0.9636,0.15457 -1.3958,0.20943 -0.2067,0.0262 -0.56907,0.0747 -0.80529,0.1077 -0.2362,0.033 -0.62273,0.0821 -0.85895,0.10912 -0.23622,0.027 -0.48987,0.0628 -0.56369,0.0795 -0.0738,0.0167 -0.48452,0.0556 -0.91265,0.0865 -0.42815,0.0308 -1.00794,0.0793 -1.28844,0.10777 -1.08213,0.10972 -2.68201,0.22494 -4.45588,0.32089 -1.14497,0.0619 -7.84782,0.12983 -7.89765,0.08 z M 31.977328,162.21154 c -0.38576,-0.45847 -0.52755,-0.63621 -0.9375,-1.17514 -0.65422,-0.86011 -0.70796,-0.9322 -0.84514,-1.13408 -0.0705,-0.10379 -0.16776,-0.2215 -0.21605,-0.26158 -0.0483,-0.0401 -0.0878,-0.0986 -0.0878,-0.12997 0,-0.0314 -0.0468,-0.10694 -0.10387,-0.1679 -0.0572,-0.0609 -0.1598,-0.18848 -0.22816,-0.2834 -0.0684,-0.0949 -0.2934,-0.40553 -0.50008,-0.69025 -0.2067,-0.2847 -0.40265,-0.56429 -0.43546,-0.62128 -0.0328,-0.057 -0.10717,-0.15708 -0.16526,-0.22241 -0.0582,-0.0653 -0.29054,-0.39661 -0.51654,-0.73616 -0.22597,-0.33957 -0.55417,-0.82273 -0.72929,-1.07371 -0.17513,-0.25097 -0.38438,-0.56503 -0.46504,-0.69791 -0.0806,-0.13287 -0.29693,-0.47108 -0.4806,-0.75158 -0.38272,-0.58452 -0.61744,-0.95142 -0.69627,-1.08838 -0.10885,-0.18917 -0.73911,-1.19645 -0.83164,-1.3291 -0.0521,-0.0747 -0.15228,-0.24107 -0.22263,-0.36965 -0.17068,-0.31203 -0.22853,-0.40864 -0.29666,-0.49536 -0.0315,-0.04 -0.14817,-0.24194 -0.25935,-0.44863 -0.11118,-0.20669 -0.23049,-0.41204 -0.26513,-0.45633 -0.0347,-0.0443 -0.0982,-0.15239 -0.14117,-0.24024 -0.043,-0.0878 -0.19729,-0.36566 -0.34281,-0.61737 -0.48981,-0.84727 -1.46821,-2.67477 -2.15633,-4.02773 -0.52406,-1.03042 -1.34773,-2.7578 -1.7919,-3.75796 -0.12459,-0.2805 -0.31199,-0.69119 -0.41646,-0.91264 -0.10446,-0.22146 -0.27192,-0.60494 -0.37209,-0.85219 -0.1002,-0.24724 -0.24191,-0.58013 -0.31493,-0.73975 -0.073,-0.15963 -0.13274,-0.31139 -0.13274,-0.33725 0,-0.0259 -0.0465,-0.1399 -0.10332,-0.25341 -0.0568,-0.11352 -0.19209,-0.4359 -0.3006,-0.7164 -0.10849,-0.28051 -0.24318,-0.62477 -0.29931,-0.76501 -0.25257,-0.63116 -0.31385,-0.7863 -0.43984,-1.11398 -0.33849,-0.88031 -0.46543,-1.2291 -0.54704,-1.50318 -0.0843,-0.2832 -0.25587,-0.729 -0.35604,-0.92534 -0.0262,-0.0513 -0.0476,-0.14044 -0.0476,-0.19815 0,-0.0577 -0.0241,-0.11986 -0.0537,-0.13811 -0.0295,-0.0183 -0.0537,-0.0804 -0.0537,-0.1381 0,-0.0577 -0.0229,-0.14689 -0.051,-0.19816 -0.028,-0.0513 -0.14061,-0.38312 -0.2502,-0.73744 -0.10957,-0.35432 -0.2195,-0.66717 -0.2443,-0.69523 -0.0247,-0.028 -0.0451,-0.10513 -0.0451,-0.1713 0,-0.0661 -0.0241,-0.13524 -0.0537,-0.15348 -0.0296,-0.0183 -0.0537,-0.0874 -0.0537,-0.15349 0,-0.0661 -0.0201,-0.14326 -0.0446,-0.17131 -0.0246,-0.0281 -0.0866,-0.20803 -0.13804,-0.39996 -0.0514,-0.19192 -0.15531,-0.53013 -0.23093,-0.75158 -0.0756,-0.22146 -0.14917,-0.46937 -0.16342,-0.55094 -0.0143,-0.0815 -0.0473,-0.1615 -0.0734,-0.17764 -0.0262,-0.0161 -0.0475,-0.0826 -0.0475,-0.14774 0,-0.0651 -0.0483,-0.25057 -0.10738,-0.41213 -0.0591,-0.16157 -0.10735,-0.33553 -0.10735,-0.38659 0,-0.0511 -0.0328,-0.19634 -0.0729,-0.32287 -0.0401,-0.12651 -0.10211,-0.33874 -0.13796,-0.47161 -0.0358,-0.13288 -0.1118,-0.38971 -0.16879,-0.57075 -0.057,-0.18103 -0.10363,-0.36859 -0.10363,-0.41678 0,-0.0482 -0.0221,-0.12958 -0.0493,-0.18085 -0.0272,-0.0513 -0.0906,-0.28649 -0.14103,-0.5227 -0.086,-0.40264 -0.17687,-0.76664 -0.30154,-1.20792 -0.0493,-0.17433 -0.0959,-0.37581 -0.18036,-0.77844 -0.0185,-0.0886 -0.0542,-0.20937 -0.0791,-0.26842 -0.0249,-0.059 -0.0591,-0.19192 -0.0757,-0.29527 -0.0167,-0.10335 -0.0682,-0.35701 -0.11445,-0.56369 -0.10562,-0.47177 -0.18227,-0.85827 -0.21831,-1.10054 -0.0154,-0.10335 -0.0489,-0.23622 -0.0746,-0.29528 -0.0257,-0.0591 -0.0614,-0.19192 -0.0792,-0.29526 -0.0319,-0.18403 -0.0805,-0.42869 -0.1812,-0.91265 -0.0822,-0.39484 -0.22587,-1.18475 -0.27824,-1.53003 -0.0269,-0.17716 -0.0736,-0.45498 -0.10399,-0.61738 -0.0303,-0.16239 -0.0803,-0.44021 -0.11094,-0.61737 -0.0307,-0.17716 -0.0772,-0.4429 -0.10318,-0.59054 -0.0261,-0.14764 -0.0623,-0.37714 -0.0806,-0.51001 -0.0183,-0.13287 -0.0551,-0.36237 -0.082,-0.51001 -0.0948,-0.52084 -0.1667,-1.02593 -0.22157,-1.55686 -0.0522,-0.50591 -0.0838,-0.76649 -0.20597,-1.70451 -0.0887,-0.68124 -0.23888,-2.04483 -0.29699,-2.69768 -0.0159,-0.17716 -0.0546,-0.58785 -0.0863,-0.91264 -0.0563,-0.57722 -0.10682,-1.47771 -0.21683,-3.86533 -0.0689,-1.49521 -0.0692,-7.360104 0,-8.884884 0.11598,-2.57246 0.16466,-3.4704 0.19647,-3.62375 0.0183,-0.0886 0.0566,-0.45095 0.0851,-0.80527 0.0554,-0.68943 0.11621,-1.30293 0.21041,-2.12057 0.0323,-0.2805 0.0806,-0.70327 0.1073,-0.93948 0.0267,-0.23622 0.0728,-0.59859 0.10231,-0.80528 0.0296,-0.20669 0.0773,-0.6053 0.10616,-0.88581 0.0288,-0.2805 0.0766,-0.65495 0.10613,-0.83211 0.0296,-0.17716 0.0699,-0.41875 0.0896,-0.53686 0.0197,-0.1181 0.0563,-0.35969 0.0813,-0.53685 0.025,-0.17716 0.0714,-0.46706 0.10306,-0.64422 0.0317,-0.17717 0.0798,-0.45498 0.10706,-0.61738 0.0272,-0.16239 0.0754,-0.42813 0.10721,-0.59054 0.0318,-0.16239 0.0798,-0.44021 0.10667,-0.61737 0.0955,-0.62977 0.29713,-1.67932 0.48465,-2.5232 0.12383,-0.55726 0.16858,-0.76445 0.21441,-0.99318 0.0266,-0.13287 0.0868,-0.41069 0.13386,-0.61738 0.047,-0.20669 0.0998,-0.47902 0.11729,-0.60519 0.0175,-0.12617 0.0528,-0.24234 0.0784,-0.25817 0.0256,-0.0159 0.0466,-0.11048 0.0466,-0.21034 0,-0.0999 0.0216,-0.19491 0.048,-0.21124 0.0264,-0.0163 0.0601,-0.12041 0.075,-0.23132 0.0148,-0.11092 0.0553,-0.29829 0.0898,-0.41641 0.12364,-0.42308 0.31122,-1.21132 0.36107,-1.5171 0.0156,-0.0962 0.05,-0.18825 0.0763,-0.20449 0.0263,-0.0162 0.0478,-0.1078 0.0478,-0.2035 0,-0.0957 0.0199,-0.19694 0.0444,-0.22499 0.0419,-0.0482 0.091,-0.20495 0.2303,-0.73549 0.033,-0.12549 0.0793,-0.28856 0.10301,-0.36237 0.0238,-0.0738 0.0582,-0.20669 0.0768,-0.29527 0.0466,-0.22284 0.20907,-0.7782 0.48691,-1.66424 0.12961,-0.41338 0.28573,-0.9207 0.34693,-1.12739 0.0612,-0.20669 0.13122,-0.42411 0.15564,-0.48316 0.0245,-0.059 0.0736,-0.20401 0.10937,-0.32211 0.0358,-0.11812 0.10906,-0.33553 0.16295,-0.48317 0.0539,-0.14764 0.16172,-0.47377 0.23959,-0.72475 0.0779,-0.25098 0.16217,-0.50464 0.18733,-0.5637 0.0252,-0.059 0.077,-0.21608 0.11518,-0.34895 0.0382,-0.13287 0.087,-0.26574 0.10842,-0.29526 0.0214,-0.0296 0.12328,-0.29527 0.22636,-0.59054 0.27965,-0.8011 0.68051,-1.88646 0.81291,-2.20109 0.18061,-0.42919 0.45217,-1.10442 0.58297,-1.4495 0.14978,-0.39514 0.63657,-1.55378 0.7672,-1.82606 0.0711,-0.14806 0.12896,-0.29301 0.12872,-0.32212 0,-0.0291 0.094,-0.24618 0.20942,-0.48239 0.11543,-0.23622 0.30054,-0.63483 0.41137,-0.88581 0.11082,-0.25097 0.45144,-0.97959 0.75691,-1.61914 0.3055,-0.63955 0.55543,-1.1777 0.55543,-1.19589 0,-0.0881 2.46932,-4.73716 2.81035,-5.29113 0.0635,-0.10318 0.1638,-0.27556 0.22287,-0.38305 0.25586,-0.46575 0.32046,-0.57879 0.55628,-0.9731 0.41743,-0.69807 0.55567,-0.92564 0.96124,-1.5824 0.51469,-0.83348 0.50138,-0.81216 0.66218,-1.0604 0.0768,-0.11859 0.14929,-0.2404 0.16104,-0.27067 0.0349,-0.09 0.83425,-1.2971 1.63425,-2.46815 0.20173,-0.29527 0.48252,-0.70862 0.62398,-0.91854 0.14146,-0.20992 0.29397,-0.41219 0.33889,-0.44947 0.0449,-0.0373 0.0817,-0.09 0.0817,-0.11708 0,-0.0527 0.15709,-0.28777 0.3758,-0.56244 0.0738,-0.0927 0.30332,-0.4023 0.50999,-0.68799 0.2067,-0.2857 0.44828,-0.61393 0.53687,-0.72941 0.0886,-0.11547 0.23352,-0.30843 0.32211,-0.42879 0.0886,-0.12037 0.22748,-0.29928 0.30868,-0.39758 0.0812,-0.0983 0.14763,-0.19639 0.14763,-0.21797 0,-0.0401 0.12923,-0.20686 0.51376,-0.66261 0.12017,-0.14243 0.28843,-0.35366 0.37389,-0.46939 0.0855,-0.11572 0.2408,-0.31112 0.3452,-0.4342 0.10439,-0.12308 0.26229,-0.32418 0.35086,-0.44689 0.15815,-0.21907 0.5235,-0.66049 0.92457,-1.1171 0.11154,-0.127 0.23907,-0.28883 0.28334,-0.35962 0.0443,-0.0708 0.17718,-0.23864 0.29529,-0.37299 0.11809,-0.13434 0.35729,-0.40736 0.5315,-0.6067 0.17424,-0.19935 0.47623,-0.53938 0.67108,-0.75563 0.19486,-0.21625 0.54091,-0.60279 0.76902,-0.85896 1.89864,-2.1323 5.73313,-5.96394 7.69172,-7.68602 0.26572,-0.23365 0.64019,-0.56984 0.83211,-0.74709 0.19193,-0.17724 0.53015,-0.47968 0.7516,-0.67208 0.22145,-0.19241 0.52562,-0.45922 0.67595,-0.59292 0.15032,-0.1337 0.29294,-0.24309 0.31693,-0.24309 0.024,0 0.17185,-0.11476 0.32859,-0.25501 0.37004,-0.33111 0.6985,-0.59814 1.63436,-1.3287 0.15129,-0.11811 0.47218,-0.37688 0.71309,-0.57504 0.70856,-0.58289 0.77289,-0.63288 0.81405,-0.63288 0.0216,0 0.11967,-0.0665 0.21798,-0.14763 0.0983,-0.0812 0.27721,-0.22011 0.39757,-0.30869 0.12038,-0.0886 0.31306,-0.23354 0.42821,-0.32212 0.11515,-0.0886 0.44209,-0.33016 0.72654,-0.53685 0.28445,-0.20668 0.59749,-0.44222 0.69568,-0.52342 0.0982,-0.0812 0.20177,-0.14764 0.2302,-0.14764 0.0284,0 0.0954,-0.0483 0.14887,-0.10737 0.0534,-0.059 0.12669,-0.10737 0.16279,-0.10737 0.0361,0 0.0951,-0.0356 0.13117,-0.0789 0.036,-0.0435 0.3591,-0.27799 0.7179,-0.52125 0.35879,-0.24325 0.78523,-0.53476 0.94765,-0.6478 0.16238,-0.11304 0.46913,-0.31936 0.68163,-0.45851 1.19655,-0.78343 1.37829,-0.90196 1.45841,-0.95116 0.0483,-0.0297 0.39597,-0.24711 0.77252,-0.48317 0.81047,-0.50808 1.16232,-0.72354 1.4896,-0.91217 0.13289,-0.0766 0.38654,-0.22558 0.5637,-0.33112 0.17717,-0.10553 0.40207,-0.23771 0.49977,-0.29373 0.6734,-0.38603 0.98995,-0.56841 1.27185,-0.73274 0.90296,-0.52638 3.65034,-1.98222 4.69744,-2.48919 2.05558,-0.9952397 3.08438,-1.4686097 4.88535,-2.2478097 0.22144,-0.0958 0.47511,-0.20582 0.56368,-0.24445 0.61935,-0.2701 1.32818,-0.5597 1.36995,-0.5597 0.0274,0 0.15316,-0.0458 0.27944,-0.10166 0.31854,-0.14104 0.70012,-0.29614 1.14225,-0.46426 0.20669,-0.0786 0.39875,-0.16461 0.42679,-0.19113 0.0281,-0.0265 0.10515,-0.0482 0.17131,-0.0482 0.0661,0 0.13524,-0.0242 0.15348,-0.0537 0.0183,-0.0296 0.0874,-0.0537 0.1535,-0.0537 0.0661,0 0.14325,-0.0215 0.17132,-0.0478 0.028,-0.0263 0.29256,-0.13296 0.58785,-0.23705 0.75084,-0.26471 1.16309,-0.41332 1.28844,-0.4645 0.0591,-0.0241 0.53013,-0.18027 1.04684,-0.34703 0.51672,-0.16677 0.98783,-0.32421 1.04686,-0.34988 0.11398,-0.0496 1.17791,-0.38013 1.58371,-0.49211 0.13289,-0.0367 0.26454,-0.0866 0.2926,-0.11102 0.028,-0.0244 0.0948,-0.0444 0.14836,-0.0444 0.0536,0 0.13931,-0.0218 0.19058,-0.0485 0.0513,-0.0266 0.18984,-0.0743 0.30796,-0.10594 0.47613,-0.12747 0.87531,-0.23936 1.18108,-0.33107 0.46185,-0.13852 1.03516,-0.30142 1.31527,-0.3737 0.13288,-0.0343 0.32614,-0.0852 0.42949,-0.11315 0.10334,-0.0279 0.2966,-0.0728 0.42949,-0.0995 0.13286,-0.0268 0.32612,-0.0728 0.42946,-0.10211 0.43741,-0.12438 1.06205,-0.2883 1.26162,-0.33106 0.11809,-0.0254 0.31135,-0.0707 0.42947,-0.10076 0.11811,-0.0301 0.38385,-0.0918 0.59053,-0.1372 0.2067,-0.0453 0.48452,-0.1082 0.61738,-0.13964 0.13288,-0.0315 0.3503,-0.0786 0.48317,-0.10484 0.13287,-0.0263 0.3503,-0.072 0.48316,-0.10151 0.13288,-0.0296 0.36239,-0.0788 0.51003,-0.10952 0.14762,-0.0306 0.37713,-0.0806 0.50999,-0.11112 0.13288,-0.0305 0.45901,-0.0921 0.72475,-0.13692 0.26575,-0.0448 0.60397,-0.10553 0.75161,-0.1349 0.36771,-0.0732 0.74017,-0.14165 1.15422,-0.21224 0.19193,-0.0327 0.46974,-0.0808 0.61737,-0.10687 0.14764,-0.0261 0.353,-0.0614 0.45634,-0.0785 0.10333,-0.0171 0.32077,-0.0555 0.48315,-0.0852 0.16241,-0.0297 0.50063,-0.0781 0.7516,-0.10748 0.25098,-0.0294 0.61336,-0.0771 0.80527,-0.1061 0.19193,-0.029 0.53015,-0.0779 0.7516,-0.10852 0.22145,-0.0306 0.57174,-0.0793 0.77844,-0.10808 0.35195,-0.049 0.59213,-0.0782 1.7045,-0.20781 0.24358,-0.0284 0.913982,-0.0904 1.489762,-0.13788 0.57576,-0.0475 1.31259,-0.10885 1.6374,-0.1364 4.13635,-0.35088 9.8115,-0.39068 14.41445,-0.10108 1.2963,0.0815 3.58682,0.27066 4.50955,0.37228 0.71714,0.0789 2.05984,0.25024 2.55004,0.32524 0.55689,0.0852 0.99922,0.14763 1.66424,0.23487 0.60979,0.08 0.8648,0.12031 1.55686,0.24615 0.64514,0.11729 0.92521,0.16676 1.20792,0.21336 0.16241,0.0268 0.40398,0.072 0.53686,0.10047 0.13286,0.0285 0.45899,0.0914 0.72474,0.1397 0.26575,0.0484 0.61603,0.1122 0.77844,0.1419 0.1624,0.0297 0.37982,0.0664 0.48316,0.0815 0.10335,0.0151 0.23621,0.0484 0.29526,0.0738 0.10813,0.0467 0.22753,0.0754 0.67107,0.16172 0.13288,0.0259 0.35029,0.0735 0.48317,0.10592 0.13286,0.0324 0.41071,0.0938 0.61738,0.13638 0.52086,0.10735 0.82246,0.17581 1.07371,0.24371 0.11809,0.0319 0.31136,0.0817 0.42947,0.1106 0.11811,0.0289 0.2993,0.0736 0.40264,0.0992 0.10334,0.0256 0.50197,0.12334 0.8858,0.21711 0.38386,0.0938 0.73987,0.19248 0.79112,0.21936 0.0513,0.0269 0.12309,0.0488 0.15955,0.0488 0.0365,0 0.23612,0.05 0.44362,0.11117 0.20754,0.0611 0.47395,0.13643 0.59207,0.16728 0.11811,0.0308 0.27514,0.0746 0.34895,0.0972 0.0738,0.0226 0.26708,0.0786 0.42949,0.12444 0.74413,0.20999 2.80803,0.85364 3.03319,0.94593 0.059,0.0242 0.53015,0.18129 1.04687,0.34906 0.51672,0.16776 0.9878,0.32498 1.04686,0.34938 0.059,0.0244 0.21608,0.0756 0.34896,0.11383 0.13286,0.0383 0.26599,0.0874 0.29582,0.10939 0.0298,0.022 0.29557,0.12441 0.59053,0.22768 0.59715,0.20908 1.20555,0.43359 1.77105,0.65356 0.2067,0.0804 0.4716,0.18117 0.58872,0.22395 0.1171,0.0427 0.33453,0.13257 0.48316,0.19954 0.14865,0.0669 0.49976,0.21262 0.78027,0.32366 0.7629,0.30201 1.74905,0.71799 2.18701,0.92252 0.21372,0.0998 0.41057,0.18146 0.43746,0.18146 0.0269,0 0.19024,0.0745 0.36301,0.16566 0.17277,0.0911 0.45909,0.22569 0.63625,0.29909 0.6804,0.28188 3.89321,1.8683697 5.2343,2.5847397 1.23642,0.66044 1.736,0.93275 1.79847,0.98034 0.0295,0.0225 0.22278,0.13033 0.42947,0.23964 0.45118,0.2386 0.8019,0.43493 1.02001,0.57102 0.61951,0.3865 2.40307,1.44067 2.43746,1.44067 0.0233,0 0.086,0.0483 0.13943,0.10737 0.0534,0.059 0.11833,0.10737 0.14418,0.10737 0.0259,0 0.33015,0.18452 0.67618,0.41002 0.34603,0.22551 0.74994,0.48741 0.89757,0.582 0.53421,0.34229 1.99135,1.31937 2.20109,1.47594 0.11811,0.0882 0.26306,0.18552 0.32211,0.21633 0.059,0.0308 0.25231,0.16478 0.42949,0.29771 0.17716,0.13291 0.48024,0.34743 0.6735,0.47668 0.19329,0.12926 0.38347,0.27362 0.42265,0.32083 0.0392,0.0472 0.0951,0.0858 0.12438,0.0858 0.0292,0 0.12897,0.0628 0.22159,0.13967 0.0926,0.0768 0.44286,0.34266 0.77831,0.59075 0.33541,0.24808 0.68571,0.5106 0.77841,0.58338 0.0927,0.0728 0.27188,0.2116 0.39813,0.30849 0.12626,0.0969 0.31064,0.2426 0.40974,0.3238 0.0991,0.0812 0.19842,0.14763 0.22076,0.14763 0.0223,0 0.14463,0.0906 0.27181,0.20132 0.12716,0.11072 0.34355,0.28588 0.48084,0.38921 0.13731,0.10335 0.3138,0.24919 0.39218,0.32411 0.0784,0.0749 0.28747,0.24741 0.46463,0.38333 0.17715,0.13592 0.46706,0.36917 0.64422,0.51833 0.65337,0.55011 0.97473,0.82373 1.32013,1.12404 0.19459,0.16918 0.4422,0.37507 0.55026,0.45753 0.1576,0.12025 0.19649,0.1857 0.19649,0.33065 0,0.16734 -0.17188,0.34902 -2.32139,2.4538 -1.27677,1.2502 -3.69928,3.63803 -5.38341,5.30629 -7.29048,7.22191 -9.35337,9.23385 -9.46766,9.23385 -0.14717,0 -0.1479,-0.12724 -0.003,-0.46529 0.0613,-0.14271 0.18772,-0.56144 0.28098,-0.93052 0.15733,-0.62265 0.16957,-0.73692 0.16957,-1.58371 0,-0.84867 -0.012,-0.95971 -0.17052,-1.58372 -0.75779,-2.98232 -2.87013,-5.09696 -5.78162,-5.78789 -0.52849,-0.12543 -0.70487,-0.14139 -1.56208,-0.14139 -0.85721,0 -1.0336,0.0159 -1.56208,0.14139 -1.37334,0.3259 -2.39398,0.86911 -3.60602,1.91917 -0.15552,0.13474 -1.92992,1.92398 -3.94314,3.9761 -2.0132,2.05211 -4.93005,5.02358 -6.4819,6.60326 -9.29757,9.46438 -10.55251,10.75649 -10.57858,10.8918 -0.0391,0.20257 -0.2706,0.20715 -0.84297,0.0168 -0.78492,-0.26116 -1.38604,-0.43992 -1.47934,-0.43992 -0.0486,0 -0.15582,-0.0271 -0.23841,-0.0604 -0.0826,-0.0332 -0.19848,-0.0797 -0.25752,-0.10333 -0.059,-0.0237 -0.17986,-0.058 -0.26842,-0.0763 -0.18788,-0.0388 -0.44964,-0.10446 -0.75161,-0.18843 -0.3663,-0.10187 -1.26259,-0.30274 -1.58371,-0.35492 -0.10334,-0.0169 -0.23622,-0.0513 -0.29526,-0.0766 -0.059,-0.0254 -0.19193,-0.0583 -0.29527,-0.0733 -0.10334,-0.015 -0.30869,-0.0539 -0.45633,-0.0867 -0.36669,-0.0813 -0.78693,-0.15414 -1.23476,-0.21403 -0.20667,-0.0276 -0.43618,-0.0654 -0.51,-0.084 -0.0738,-0.0185 -0.32748,-0.0569 -0.5637,-0.0852 -0.83469,-0.10024 -1.29295,-0.15717 -1.69107,-0.21013 -0.95883,-0.12754 -3.61618,-0.27237 -4.96588,-0.27065 -1.39227,0.002 -3.95329,0.14113 -4.9122,0.26729 -0.22145,0.0291 -0.60798,0.0775 -0.85895,0.10749 -0.78033,0.0932 -2.19261,0.29973 -2.65742,0.38857 -0.14763,0.0282 -0.35297,0.0639 -0.45631,0.0792 -0.10336,0.0153 -0.23622,0.0491 -0.29527,0.075 -0.059,0.0259 -0.19192,0.0592 -0.29526,0.0742 -0.20837,0.0301 -0.37503,0.0652 -1.315292,0.27677 -0.35433,0.0797 -0.71095,0.15693 -0.79253,0.17159 -0.0815,0.0146 -0.16149,0.048 -0.17764,0.0742 -0.0162,0.0262 -0.0872,0.0475 -0.15788,0.0475 -0.0707,0 -0.18399,0.0217 -0.25183,0.0481 -0.11617,0.0453 -0.40256,0.12845 -0.76754,0.2228 -0.50006,0.12929 -2.71943,0.83341 -2.95268,0.93679 -0.0886,0.0392 -0.29996,0.12181 -0.46975,0.18345 -1.2327,0.44751 -1.56196,0.5773 -1.79155,0.70625 -0.10155,0.0571 -0.21941,0.10371 -0.2619,0.10371 -0.0425,0 -0.1565,0.0435 -0.25337,0.0969 -0.0969,0.0532 -0.30898,0.15261 -0.47137,0.22077 -0.54792,0.22996 -0.77521,0.33769 -1.879,0.89059 -1.38889,0.69573 -1.84766,0.93602 -2.1329,1.11712 -0.12492,0.0793 -0.23923,0.14419 -0.25406,0.14419 -0.0223,0 -0.51828,0.28684 -0.83414,0.48239 -0.0443,0.0274 -0.26171,0.16073 -0.48316,0.29624 -0.22145,0.1355 -0.58383,0.36602 -0.80528,0.51225 -0.22145,0.14623 -0.45195,0.28754 -0.51222,0.31402 -0.0603,0.0265 -0.14172,0.0869 -0.18105,0.13427 -0.0393,0.0474 -0.0952,0.0861 -0.12426,0.0861 -0.029,0 -0.12103,0.0544 -0.20446,0.1208 -0.0834,0.0664 -0.23186,0.17628 -0.32987,0.24409 -0.81321,0.56278 -1.43871,1.01905 -1.81803,1.32619 -0.14588,0.11811 -0.34722,0.28118 -0.44743,0.36238 -0.10022,0.0812 -0.20013,0.14764 -0.22202,0.14764 -0.0219,0 -0.13296,0.0785 -0.24683,0.17447 -0.11386,0.096 -0.36633,0.30735 -0.56106,0.46974 -0.39055,0.3257 -0.91525,0.78639 -1.51861,1.3333 -0.78608,0.71256 -3.21898,3.17214 -3.92696,3.97002 -0.68646,0.77362 -0.87613,0.99705 -1.41097,1.66197 -0.12454,0.1548 -0.29285,0.36347 -0.37405,0.46369 -0.0812,0.10022 -0.14764,0.20488 -0.14764,0.23259 0,0.0277 -0.0633,0.10894 -0.14063,0.18053 -0.0773,0.0716 -0.19828,0.2147 -0.26871,0.31805 -0.0704,0.10334 -0.21142,0.2966 -0.31334,0.42947 -0.1019,0.13287 -0.32526,0.44352 -0.49632,0.69032 -0.17107,0.24681 -0.35935,0.51612 -0.4184,0.59845 -0.31367,0.43736 -0.45633,0.65366 -0.45633,0.69195 0,0.0235 -0.0483,0.0864 -0.10735,0.13985 -0.059,0.0534 -0.10738,0.1178 -0.10738,0.14301 0,0.0252 -0.12903,0.24494 -0.28671,0.48827 -0.15769,0.24333 -0.35698,0.55854 -0.44289,0.70048 -0.0859,0.14193 -0.24672,0.40767 -0.35736,0.59054 -0.11062,0.18286 -0.28575,0.4895 -0.38917,0.68143 -0.10344,0.19192 -0.28383,0.51806 -0.40086,0.72475 -0.38298,0.6763 -1.54173,3.04364 -1.8,3.67742 -0.0782,0.19193 -0.22387,0.53015 -0.3237,0.7516 -0.0998,0.22145 -0.29539,0.7167 -0.43456,1.10054 -0.13919,0.38385 -0.27325,0.72086 -0.29791,0.74891 -0.0246,0.028 -0.0448,0.10173 -0.0448,0.16374 0,0.062 -0.0204,0.13569 -0.0453,0.16373 -0.0629,0.0708 -0.25046,0.57757 -0.35668,0.96365 -0.0487,0.17717 -0.11531,0.41875 -0.14792,0.53686 -0.0326,0.1181 -0.0792,0.23769 -0.10362,0.26574 -0.0244,0.028 -0.0444,0.10173 -0.0444,0.16374 0,0.062 -0.0199,0.13569 -0.044,0.16374 -0.0542,0.0627 -0.24027,0.67309 -0.35934,1.17838 -0.0487,0.2067 -0.10892,0.42412 -0.13383,0.48317 -0.0249,0.0591 -0.0602,0.17985 -0.0786,0.26843 -0.0183,0.0886 -0.0564,0.25165 -0.0846,0.36238 -0.2544,0.99865 -0.48461,2.02834 -0.59115,2.64399 -0.0255,0.14763 -0.0727,0.40129 -0.1047,0.56369 -0.032,0.1624 -0.0802,0.42814 -0.10702,0.59053 -0.0269,0.16241 -0.0745,0.42815 -0.1059,0.59054 -0.0314,0.1624 -0.0922,0.62141 -0.13517,1.02002 -0.0429,0.39862 -0.10447,0.9301 -0.1367,1.18107 -0.12357,0.96211 -0.27643,3.72826 -0.27589,4.99271 0,1.253754 0.14766,3.906214 0.27397,4.939034 0.0307,0.25098 0.0915,0.78246 0.13523,1.18107 0.0436,0.39861 0.10562,0.8697 0.13761,1.04686 0.032,0.17716 0.0704,0.43083 0.0853,0.5637 0.0148,0.13287 0.0487,0.2899 0.0752,0.34895 0.0264,0.0591 0.06,0.21608 0.0745,0.34895 0.0285,0.25954 0.0984,0.63216 0.19138,1.02002 0.0319,0.13287 0.095,0.43486 0.14023,0.67106 0.11012,0.57474 0.16413,0.81736 0.239,1.07371 0.0345,0.1181 0.0753,0.29348 0.0905,0.38971 0.0152,0.0962 0.0493,0.18826 0.0755,0.20449 0.0263,0.0162 0.0478,0.10781 0.0478,0.2035 0,0.0957 0.0197,0.19695 0.0437,0.225 0.0241,0.0281 0.0867,0.23219 0.1392,0.45364 0.0834,0.35174 0.34459,1.21596 0.46246,1.53003 0.0221,0.059 0.0707,0.21608 0.10794,0.34895 0.11148,0.39809 0.3741,1.19109 0.45246,1.36627 0.0851,0.19022 0.27428,0.70198 0.38797,1.04956 0.0932,0.28492 0.24322,0.65151 0.45449,1.11058 0.084,0.18268 0.15314,0.36387 0.15349,0.40264 0,0.0388 0.0589,0.17225 0.12994,0.29664 0.0711,0.12437 0.14665,0.2814 0.16783,0.34895 0.11058,0.35273 1.71763,3.58684 1.9017,3.82708 0.0226,0.0296 0.15524,0.27111 0.29474,0.53685 0.13949,0.26575 0.2754,0.50612 0.30204,0.53417 0.0266,0.028 0.0484,0.12218 0.0484,0.20917 0,0.18515 -0.0772,0.27435 -1.47209,1.69933 -0.5347,0.54625 -1.43011,1.46426 -1.98985,2.04003 -0.55973,0.57579 -1.48945,1.53019 -2.06609,2.12091 -0.57661,0.59072 -1.44667,1.48458 -1.93346,1.98635 -0.48678,0.50177 -1.36922,1.40755 -1.96095,2.01285 -0.59173,0.60531 -1.93227,1.98232 -2.97897,3.06005 -1.04671,1.07773 -2.38691,2.45476 -2.97826,3.06006 -0.59132,0.6053 -1.52156,1.55955 -2.06717,2.12056 -0.98169,1.00941 -2.02614,2.08022 -4.11054,4.21428 -0.59122,0.6053 -2.35442,2.41709 -3.91823,4.0262 -1.56381,1.60913 -3.8217,3.92906 -5.01754,5.15544 -4.95172,5.07819 -6.00286,6.15906 -6.25044,6.42731 -0.33188,0.35954 -0.47849,0.37291 -0.73582,0.0671 z M 136.45577,56.118066 c -0.43075,-0.18654 -0.60267,-0.30333 -0.95706,-0.65017 -0.21636,-0.21175 -0.45542,-0.50579 -0.53127,-0.65341 -0.36756,-0.71542 -0.36753,-1.58735 5e-5,-2.31201 0.10624,-0.20943 0.98104,-1.11438 3.80419,-3.93521 4.21964,-4.2162 3.93663,-3.98469 4.91915,-4.0238 0.91274,-0.0363 1.33432,0.12308 1.9402,0.73367 0.36827,0.37114 0.51151,0.58603 0.69601,1.0442 0.0333,0.0826 0.0605,0.42571 0.0605,0.76248 0,0.33678 -0.0272,0.6799 -0.0605,0.76249 -0.23422,0.58163 -0.27816,0.62971 -3.88202,4.24862 -1.98015,1.98842 -3.6969,3.67768 -3.81501,3.7539 -0.41617,0.26862 -0.69566,0.33493 -1.39505,0.33099 -0.35474,-0.002 -0.70538,-0.0297 -0.77919,-0.0617 z m 14.78434,-14.9381 c -0.55736,-0.13643 -1.13048,-0.53772 -1.40487,-0.98367 -0.29417,-0.47806 -0.38767,-0.84019 -0.38767,-1.50118 0,-0.34024 0.0231,-0.6115 0.0537,-0.63039 0.0295,-0.0183 0.0537,-0.081 0.0537,-0.13952 0,-0.13184 0.17573,-0.48362 0.39475,-0.79024 0.18855,-0.26398 0.75028,-0.6518 1.10844,-0.7653 0.15804,-0.0501 0.48289,-0.0764 0.93949,-0.0762 0.68462,4e-4 0.70505,0.004 1.07369,0.18361 0.43894,0.214 0.91487,0.66294 1.09087,1.02904 0.63876,1.32868 0.14784,2.9422 -1.06403,3.49705 -0.55868,0.25581 -1.26178,0.32269 -1.85804,0.17674 z"
       id="path858" /></g></svg>
